<svg width="388" height="38" viewBox="0 0 388 38" fill="none" xmlns="http://www.w3.org/2000/svg">
<rect x="0.3" y="0.3" width="387.4" height="37.4" rx="18.7" fill="#F5F6FA" stroke="#D5D5D5" stroke-width="0.6"/>
<path opacity="0.5" d="M49.4793 24.126C48.966 24.126 48.4807 24.0793 48.0233 23.986C47.5753 23.8927 47.16 23.762 46.7773 23.594C46.404 23.4167 46.0633 23.202 45.7553 22.95L46.1613 22.026C46.4787 22.2593 46.8007 22.46 47.1273 22.628C47.4633 22.7867 47.8227 22.908 48.2053 22.992C48.5973 23.0667 49.022 23.104 49.4793 23.104C50.3193 23.104 50.94 22.95 51.3413 22.642C51.752 22.3247 51.9573 21.9093 51.9573 21.396C51.9573 21.1253 51.892 20.892 51.7613 20.696C51.64 20.5 51.4347 20.332 51.1453 20.192C50.8653 20.052 50.4967 19.9353 50.0393 19.842L48.5833 19.548C47.706 19.3613 47.048 19.058 46.6093 18.638C46.18 18.2087 45.9653 17.6393 45.9653 16.93C45.9653 16.342 46.1147 15.8287 46.4133 15.39C46.7213 14.9513 47.146 14.6107 47.6873 14.368C48.238 14.1253 48.8633 14.004 49.5633 14.004C50.0113 14.004 50.436 14.0507 50.8373 14.144C51.2387 14.2373 51.6073 14.3773 51.9433 14.564C52.2887 14.7413 52.592 14.9607 52.8533 15.222L52.4473 16.118C52.0273 15.7353 51.584 15.46 51.1173 15.292C50.6507 15.1147 50.128 15.026 49.5493 15.026C49.0547 15.026 48.6253 15.1007 48.2613 15.25C47.9067 15.3993 47.6267 15.6187 47.4213 15.908C47.2253 16.188 47.1273 16.5147 47.1273 16.888C47.1273 17.336 47.2627 17.6907 47.5333 17.952C47.8133 18.2133 48.266 18.4047 48.8913 18.526L50.3473 18.834C51.29 19.03 51.9853 19.3287 52.4333 19.73C52.8907 20.122 53.1193 20.6587 53.1193 21.34C53.1193 21.8813 52.97 22.3667 52.6713 22.796C52.382 23.216 51.962 23.5427 51.4113 23.776C50.87 24.0093 50.226 24.126 49.4793 24.126ZM57.8126 24.126C57.094 24.126 56.4733 23.986 55.9506 23.706C55.4373 23.4167 55.036 23.0107 54.7466 22.488C54.4666 21.9653 54.3266 21.34 54.3266 20.612C54.3266 19.9027 54.4666 19.2867 54.7466 18.764C55.0266 18.232 55.4093 17.8167 55.8946 17.518C56.3893 17.2193 56.9586 17.07 57.6026 17.07C58.2186 17.07 58.746 17.2053 59.1846 17.476C59.6233 17.7467 59.9593 18.1293 60.1926 18.624C60.4353 19.1187 60.5566 19.7113 60.5566 20.402V20.836H55.1946V20.094H59.8006L59.5766 20.276C59.5766 19.5293 59.4086 18.9507 59.0726 18.54C58.746 18.12 58.2653 17.91 57.6306 17.91C57.1546 17.91 56.7486 18.022 56.4126 18.246C56.086 18.4607 55.8386 18.764 55.6706 19.156C55.5026 19.5387 55.4186 19.9867 55.4186 20.5V20.584C55.4186 21.1533 55.5073 21.634 55.6846 22.026C55.8713 22.418 56.1466 22.7167 56.5106 22.922C56.8746 23.118 57.3086 23.216 57.8126 23.216C58.214 23.216 58.6013 23.1553 58.9746 23.034C59.3573 22.9033 59.7166 22.6933 60.0526 22.404L60.4446 23.202C60.1366 23.482 59.7446 23.706 59.2686 23.874C58.7926 24.042 58.3073 24.126 57.8126 24.126ZM64.3398 24.126C63.8731 24.126 63.4531 24.0373 63.0798 23.86C62.7158 23.6733 62.4265 23.4213 62.2118 23.104C61.9971 22.7867 61.8898 22.432 61.8898 22.04C61.8898 21.536 62.0158 21.1393 62.2678 20.85C62.5291 20.5607 62.9538 20.3553 63.5418 20.234C64.1391 20.1127 64.9511 20.052 65.9778 20.052H66.6078V20.794H65.9918C65.4225 20.794 64.9465 20.8127 64.5638 20.85C64.1811 20.8873 63.8778 20.9527 63.6538 21.046C63.4298 21.1393 63.2711 21.2607 63.1778 21.41C63.0845 21.5593 63.0378 21.746 63.0378 21.97C63.0378 22.3527 63.1685 22.6653 63.4298 22.908C63.7005 23.1507 64.0645 23.272 64.5218 23.272C64.8951 23.272 65.2218 23.1833 65.5018 23.006C65.7911 22.8287 66.0151 22.586 66.1738 22.278C66.3418 21.97 66.4258 21.6153 66.4258 21.214V19.618C66.4258 19.0393 66.3091 18.624 66.0758 18.372C65.8425 18.1107 65.4598 17.98 64.9278 17.98C64.5171 17.98 64.1205 18.0407 63.7378 18.162C63.3551 18.274 62.9631 18.4607 62.5618 18.722L62.1698 17.896C62.4125 17.728 62.6878 17.5833 62.9958 17.462C63.3038 17.3313 63.6258 17.2333 63.9618 17.168C64.2978 17.1027 64.6198 17.07 64.9278 17.07C65.5158 17.07 66.0011 17.168 66.3838 17.364C66.7665 17.5507 67.0511 17.84 67.2378 18.232C67.4245 18.6147 67.5178 19.1093 67.5178 19.716V24H66.4538V22.418H66.5798C66.5051 22.7727 66.3605 23.076 66.1458 23.328C65.9405 23.58 65.6838 23.776 65.3758 23.916C65.0678 24.056 64.7225 24.126 64.3398 24.126ZM69.6216 24V17.196H70.7276V18.806H70.5876C70.7463 18.2553 71.0216 17.84 71.4136 17.56C71.8056 17.2707 72.3236 17.1027 72.9676 17.056L73.3736 17.014L73.4576 17.994L72.7436 18.078C72.109 18.134 71.619 18.3393 71.2736 18.694C70.9376 19.0393 70.7696 19.5153 70.7696 20.122V24H69.6216ZM77.4412 24.126C76.7598 24.126 76.1718 23.9767 75.6772 23.678C75.1825 23.3793 74.7998 22.964 74.5292 22.432C74.2678 21.8907 74.1372 21.2653 74.1372 20.556C74.1372 19.8373 74.2678 19.2167 74.5292 18.694C74.7998 18.1713 75.1825 17.77 75.6772 17.49C76.1718 17.21 76.7598 17.07 77.4412 17.07C77.8612 17.07 78.2765 17.1447 78.6872 17.294C79.0978 17.4433 79.4385 17.6533 79.7092 17.924L79.3172 18.75C79.0465 18.4887 78.7478 18.2973 78.4212 18.176C78.1038 18.0547 77.8005 17.994 77.5112 17.994C76.8018 17.994 76.2558 18.218 75.8732 18.666C75.4905 19.1047 75.2992 19.7393 75.2992 20.57C75.2992 21.382 75.4905 22.026 75.8732 22.502C76.2558 22.9687 76.8018 23.202 77.5112 23.202C77.8005 23.202 78.1038 23.1413 78.4212 23.02C78.7478 22.8987 79.0465 22.7027 79.3172 22.432L79.7092 23.258C79.4385 23.5287 79.0932 23.7433 78.6732 23.902C78.2625 24.0513 77.8518 24.126 77.4412 24.126ZM81.0376 24V14.13H82.1716V18.708H81.9896C82.1856 18.1667 82.503 17.7607 82.9416 17.49C83.3896 17.21 83.903 17.07 84.4816 17.07C85.023 17.07 85.471 17.168 85.8256 17.364C86.1896 17.56 86.4603 17.8587 86.6376 18.26C86.815 18.652 86.9036 19.1513 86.9036 19.758V24H85.7696V19.828C85.7696 19.408 85.7136 19.0627 85.6016 18.792C85.499 18.5213 85.331 18.3207 85.0976 18.19C84.8736 18.0593 84.5796 17.994 84.2156 17.994C83.805 17.994 83.4456 18.0827 83.1376 18.26C82.8296 18.4373 82.5916 18.6847 82.4236 19.002C82.2556 19.3193 82.1716 19.6927 82.1716 20.122V24H81.0376Z" fill="#202224"/>
<g opacity="0.5">
<path fill-rule="evenodd" clip-rule="evenodd" d="M25.6936 22.5352C28.4234 21.375 29.6959 18.2216 28.5357 15.4917C27.3756 12.7619 24.2221 11.4894 21.4923 12.6496C18.7624 13.8097 17.4899 16.9632 18.6501 19.693C19.8103 22.4229 22.9637 23.6953 25.6936 22.5352Z" stroke="black" stroke-width="1.2" stroke-linecap="round" stroke-linejoin="round"/>
<path d="M27.3902 21.3896L31.5556 25.5555" stroke="black" stroke-width="1.2" stroke-linecap="round" stroke-linejoin="round"/>
</g>
</svg>
