<svg width="60" height="22" viewBox="0 0 60 22" fill="none" xmlns="http://www.w3.org/2000/svg">
<rect opacity="0.2" width="60" height="22" rx="3" fill="#FD9A56"/>
<path d="M18.7821 15L15.8181 6.54H17.0901L19.5741 13.848H19.1301L21.6861 6.54H22.6341L25.1421 13.848H24.7461L27.2541 6.54H28.4661L25.4781 15H24.4341L22.0101 8.052H22.2741L19.8261 15H18.7821ZM31.4526 15.108C30.8606 15.108 30.3486 14.984 29.9166 14.736C29.4926 14.488 29.1606 14.136 28.9206 13.68C28.6806 13.224 28.5606 12.688 28.5606 12.072C28.5606 11.448 28.6806 10.912 28.9206 10.464C29.1606 10.008 29.4926 9.656 29.9166 9.408C30.3486 9.16 30.8606 9.036 31.4526 9.036C32.0366 9.036 32.5406 9.16 32.9646 9.408C33.3966 9.656 33.7326 10.008 33.9726 10.464C34.2126 10.92 34.3326 11.456 34.3326 12.072C34.3326 12.688 34.2126 13.224 33.9726 13.68C33.7326 14.136 33.3966 14.488 32.9646 14.736C32.5406 14.984 32.0366 15.108 31.4526 15.108ZM31.4406 14.172C31.9446 14.172 32.3486 13.992 32.6526 13.632C32.9566 13.272 33.1086 12.752 33.1086 12.072C33.1086 11.384 32.9566 10.864 32.6526 10.512C32.3486 10.16 31.9446 9.984 31.4406 9.984C30.9446 9.984 30.5446 10.16 30.2406 10.512C29.9366 10.864 29.7846 11.384 29.7846 12.072C29.7846 12.752 29.9366 13.272 30.2406 13.632C30.5446 13.992 30.9446 14.172 31.4406 14.172ZM35.6938 15V9.144H36.8698V10.548H36.7498C36.8778 10.068 37.1058 9.704 37.4338 9.456C37.7698 9.208 38.2138 9.064 38.7658 9.024L39.1618 9L39.2458 10.032L38.5138 10.104C37.9938 10.152 37.5978 10.316 37.3258 10.596C37.0538 10.876 36.9178 11.26 36.9178 11.748V15H35.6938ZM40.1704 15V6.54H41.3824V11.7H41.4064L43.9504 9.144H45.4504L42.3664 12.24V11.676L45.6664 15H44.1544L41.4064 12.324H41.3824V15H40.1704Z" fill="#FD9A56"/>
</svg>
